{
  "asset": {
    "version": "2.0",
    "generator": "Sketchup glTF Exporter v1.2.6 by Centaur"
  },
  "scene": 0,
  "scenes": [
    {
      "nodes": [
        0
      ]
    }
  ],
  "samplers": [
    {
    }
  ],
  "nodes": [
    {
      "name": "root",
      "children": [
        1,
        2,
        3,
        4,
        5,
        6,
        7,
        8,
        9,
        10,
        11,
        12,
        13
      ]
    },
    {
      "name": "Structure",
      "mesh": 0
    },
    {
      "name": "Locker",
      "mesh": 1
    },
    {
      "name": "Locker",
      "mesh": 2
    },
    {
      "name": "Locker",
      "mesh": 3
    },
    {
      "name": "Locker",
      "mesh": 4
    },
    {
      "name": "Locker",
      "mesh": 5
    },
    {
      "name": "Locker",
      "mesh": 6
    },
    {
      "name": "Locker",
      "mesh": 7
    },
    {
      "name": "Locker",
      "mesh": 8
    },
    {
      "name": "Locker",
      "mesh": 9
    },
    {
      "name": "Locker",
      "mesh": 10
    },
    {
      "name": "Locker",
      "mesh": 11
    },
    {
      "name": "Locker",
      "mesh": 12
    }
  ],
  "materials": [
    {
      "pbrMetallicRoughness": {
        "baseColorTexture": {
          "index": 0
        },
        "metallicFactor": 0.1,
        "roughnessFactor": 0.9
      },
      "name": "Aluminium1"
    },
    {
      "pbrMetallicRoughness": {
        "baseColorTexture": {
          "index": 1
        },
        "metallicFactor": 0.1,
        "roughnessFactor": 0.9
      },
      "name": "Material"
    },
    {
      "pbrMetallicRoughness": {
        "baseColorFactor": [
          0.2176,
          0.2176,
          0.2176,
          1.0
        ],
        "metallicFactor": 0.1,
        "roughnessFactor": 0.9
      },
      "name": "default material",
      "doubleSided": true
    }
  ],
  "images": [
    {
      "bufferView": 0,
      "mimeType": "image/jpeg"
    },
    {
      "bufferView": 1,
      "mimeType": "image/jpeg"
    }
  ],
  "textures": [
    {
      "source": 0,
      "sampler": 0
    },
    {
      "source": 1,
      "sampler": 0
    }
  ],
  "meshes": [
    {
      "primitives": [
        {
          "attributes": {
            "POSITION": 2,
            "NORMAL": 3,
            "TEXCOORD_0": 4
          },
          "indices": 5,
          "mode": 4,
          "material": 0
        }
      ]
    },
    {
      "primitives": [
        {
          "attributes": {
            "POSITION": 2,
            "NORMAL": 3,
            "TEXCOORD_0": 4
          },
          "indices": 6,
          "mode": 4,
          "material": 1
        },
        {
          "attributes": {
            "POSITION": 0,
            "NORMAL": 1
          },
          "indices": 7,
          "mode": 4,
          "material": 2
        }
      ]
    },
    {
      "primitives": [
        {
          "attributes": {
            "POSITION": 2,
            "NORMAL": 3,
            "TEXCOORD_0": 4
          },
          "indices": 8,
          "mode": 4,
          "material": 1
        },
        {
          "attributes": {
            "POSITION": 0,
            "NORMAL": 1
          },
          "indices": 9,
          "mode": 4,
          "material": 2
        }
      ]
    },
    {
      "primitives": [
        {
          "attributes": {
            "POSITION": 2,
            "NORMAL": 3,
            "TEXCOORD_0": 4
          },
          "indices": 10,
          "mode": 4,
          "material": 1
        },
        {
          "attributes": {
            "POSITION": 0,
            "NORMAL": 1
          },
          "indices": 11,
          "mode": 4,
          "material": 2
        }
      ]
    },
    {
      "primitives": [
        {
          "attributes": {
            "POSITION": 2,
            "NORMAL": 3,
            "TEXCOORD_0": 4
          },
          "indices": 12,
          "mode": 4,
          "material": 1
        },
        {
          "attributes": {
            "POSITION": 0,
            "NORMAL": 1
          },
          "indices": 13,
          "mode": 4,
          "material": 2
        }
      ]
    },
    {
      "primitives": [
        {
          "attributes": {
            "POSITION": 2,
            "NORMAL": 3,
            "TEXCOORD_0": 4
          },
          "indices": 14,
          "mode": 4,
          "material": 1
        },
        {
          "attributes": {
            "POSITION": 0,
            "NORMAL": 1
          },
          "indices": 15,
          "mode": 4,
          "material": 2
        }
      ]
    },
    {
      "primitives": [
        {
          "attributes": {
            "POSITION": 2,
            "NORMAL": 3,
            "TEXCOORD_0": 4
          },
          "indices": 16,
          "mode": 4,
          "material": 1
        },
        {
          "attributes": {
            "POSITION": 0,
            "NORMAL": 1
          },
          "indices": 17,
          "mode": 4,
          "material": 2
        }
      ]
    },
    {
      "primitives": [
        {
          "attributes": {
            "POSITION": 2,
            "NORMAL": 3,
            "TEXCOORD_0": 4
          },
          "indices": 18,
          "mode": 4,
          "material": 1
        },
        {
          "attributes": {
            "POSITION": 0,
            "NORMAL": 1
          },
          "indices": 19,
          "mode": 4,
          "material": 2
        }
      ]
    },
    {
      "primitives": [
        {
          "attributes": {
            "POSITION": 2,
            "NORMAL": 3,
            "TEXCOORD_0": 4
          },
          "indices": 20,
          "mode": 4,
          "material": 1
        },
        {
          "attributes": {
            "POSITION": 0,
            "NORMAL": 1
          },
          "indices": 21,
          "mode": 4,
          "material": 2
        }
      ]
    },
    {
      "primitives": [
        {
          "attributes": {
            "POSITION": 2,
            "NORMAL": 3,
            "TEXCOORD_0": 4
          },
          "indices": 22,
          "mode": 4,
          "material": 1
        },
        {
          "attributes": {
            "POSITION": 0,
            "NORMAL": 1
          },
          "indices": 23,
          "mode": 4,
          "material": 2
        }
      ]
    },
    {
      "primitives": [
        {
          "attributes": {
            "POSITION": 2,
            "NORMAL": 3,
            "TEXCOORD_0": 4
          },
          "indices": 24,
          "mode": 4,
          "material": 1
        },
        {
          "attributes": {
            "POSITION": 0,
            "NORMAL": 1
          },
          "indices": 25,
          "mode": 4,
          "material": 2
        }
      ]
    },
    {
      "primitives": [
        {
          "attributes": {
            "POSITION": 2,
            "NORMAL": 3,
            "TEXCOORD_0": 4
          },
          "indices": 26,
          "mode": 4,
          "material": 1
        },
        {
          "attributes": {
            "POSITION": 0,
            "NORMAL": 1
          },
          "indices": 27,
          "mode": 4,
          "material": 2
        }
      ]
    },
    {
      "primitives": [
        {
          "attributes": {
            "POSITION": 2,
            "NORMAL": 3,
            "TEXCOORD_0": 4
          },
          "indices": 28,
          "mode": 4,
          "material": 1
        },
        {
          "attributes": {
            "POSITION": 0,
            "NORMAL": 1
          },
          "indices": 29,
          "mode": 4,
          "material": 2
        }
      ]
    }
  ],
  "accessors": [
    {
      "bufferView": 2,
      "componentType": 5126,
      "count": 816,
      "type": "VEC3",
      "min": [
        0.025000000000000095,
        0.06599999999999995,
        -0.45000000000000007
      ],
      "max": [
        0.875,
        1.6149999999999993,
        -0.009999999999999775
      ]
    },
    {
      "bufferView": 3,
      "componentType": 5126,
      "count": 816,
      "type": "VEC3",
      "min": [
        -1.0,
        -1.0,
        -1.0
      ],
      "max": [
        1.0,
        1.0,
        1.0
      ]
    },
    {
      "bufferView": 4,
      "componentType": 5126,
      "count": 1269,
      "type": "VEC3",
      "min": [
        -2.4492935982945724e-19,
        -2.7554552980815448e-17,
        -0.4510000000000001
      ],
      "max": [
        0.9000000000000001,
        1.8310000000000002,
        0.0010000000000002104
      ]
    },
    {
      "bufferView": 5,
      "componentType": 5126,
      "count": 1269,
      "type": "VEC3",
      "min": [
        -1.0,
        -1.0,
        -1.0
      ],
      "max": [
        1.0,
        1.0,
        1.0
      ]
    },
    {
      "bufferView": 6,
      "componentType": 5126,
      "count": 1269,
      "type": "VEC2",
      "min": [
        -35.43307086614173,
        -71.08661417322836
      ],
      "max": [
        35.43307086614173,
        1.0393700787401574
      ]
    },
    {
      "bufferView": 8,
      "componentType": 5123,
      "count": 780,
      "type": "SCALAR"
    },
    {
      "bufferView": 8,
      "componentType": 5123,
      "count": 141,
      "type": "SCALAR",
      "byteOffset": 1560
    },
    {
      "bufferView": 7,
      "componentType": 5123,
      "count": 147,
      "type": "SCALAR"
    },
    {
      "bufferView": 8,
      "componentType": 5123,
      "count": 141,
      "type": "SCALAR",
      "byteOffset": 1842
    },
    {
      "bufferView": 7,
      "componentType": 5123,
      "count": 147,
      "type": "SCALAR",
      "byteOffset": 294
    },
    {
      "bufferView": 8,
      "componentType": 5123,
      "count": 141,
      "type": "SCALAR",
      "byteOffset": 2124
    },
    {
      "bufferView": 7,
      "componentType": 5123,
      "count": 147,
      "type": "SCALAR",
      "byteOffset": 588
    },
    {
      "bufferView": 8,
      "componentType": 5123,
      "count": 141,
      "type": "SCALAR",
      "byteOffset": 2406
    },
    {
      "bufferView": 7,
      "componentType": 5123,
      "count": 147,
      "type": "SCALAR",
      "byteOffset": 882
    },
    {
      "bufferView": 8,
      "componentType": 5123,
      "count": 141,
      "type": "SCALAR",
      "byteOffset": 2688
    },
    {
      "bufferView": 7,
      "componentType": 5123,
      "count": 147,
      "type": "SCALAR",
      "byteOffset": 1176
    },
    {
      "bufferView": 8,
      "componentType": 5123,
      "count": 141,
      "type": "SCALAR",
      "byteOffset": 2970
    },
    {
      "bufferView": 7,
      "componentType": 5123,
      "count": 147,
      "type": "SCALAR",
      "byteOffset": 1470
    },
    {
      "bufferView": 8,
      "componentType": 5123,
      "count": 141,
      "type": "SCALAR",
      "byteOffset": 3252
    },
    {
      "bufferView": 7,
      "componentType": 5123,
      "count": 147,
      "type": "SCALAR",
      "byteOffset": 1764
    },
    {
      "bufferView": 8,
      "componentType": 5123,
      "count": 141,
      "type": "SCALAR",
      "byteOffset": 3534
    },
    {
      "bufferView": 7,
      "componentType": 5123,
      "count": 147,
      "type": "SCALAR",
      "byteOffset": 2058
    },
    {
      "bufferView": 8,
      "componentType": 5123,
      "count": 141,
      "type": "SCALAR",
      "byteOffset": 3816
    },
    {
      "bufferView": 7,
      "componentType": 5123,
      "count": 147,
      "type": "SCALAR",
      "byteOffset": 2352
    },
    {
      "bufferView": 8,
      "componentType": 5123,
      "count": 141,
      "type": "SCALAR",
      "byteOffset": 4098
    },
    {
      "bufferView": 7,
      "componentType": 5123,
      "count": 147,
      "type": "SCALAR",
      "byteOffset": 2646
    },
    {
      "bufferView": 8,
      "componentType": 5123,
      "count": 141,
      "type": "SCALAR",
      "byteOffset": 4380
    },
    {
      "bufferView": 7,
      "componentType": 5123,
      "count": 147,
      "type": "SCALAR",
      "byteOffset": 2940
    },
    {
      "bufferView": 8,
      "componentType": 5123,
      "count": 141,
      "type": "SCALAR",
      "byteOffset": 4662
    },
    {
      "bufferView": 7,
      "componentType": 5123,
      "count": 147,
      "type": "SCALAR",
      "byteOffset": 3234
    }
  ],
  "bufferViews": [
    {
      "buffer": 0,
      "byteLength": 149883
    },
    {
      "buffer": 0,
      "byteOffset": 149883,
      "byteLength": 158428
    },
    {
      "buffer": 0,
      "byteOffset": 308316,
      "byteLength": 9792,
      "target": 34962,
      "byteStride": 12
    },
    {
      "buffer": 0,
      "byteOffset": 318108,
      "byteLength": 9792,
      "target": 34962,
      "byteStride": 12
    },
    {
      "buffer": 0,
      "byteOffset": 327900,
      "byteLength": 15228,
      "target": 34962,
      "byteStride": 12
    },
    {
      "buffer": 0,
      "byteOffset": 343128,
      "byteLength": 15228,
      "target": 34962,
      "byteStride": 12
    },
    {
      "buffer": 0,
      "byteOffset": 358360,
      "byteLength": 10152,
      "target": 34962,
      "byteStride": 8
    },
    {
      "buffer": 0,
      "byteOffset": 368512,
      "byteLength": 3528,
      "target": 34963
    },
    {
      "buffer": 0,
      "byteOffset": 372040,
      "byteLength": 4944,
      "target": 34963
    }
  ],
  "buffers": [
    {
      "uri": "data:application/octet-stream;base64,",
      "byteLength": 376984
    }
  ]
}