{
  "asset": {
    "version": "2.0",
    "generator": "Sketchup glTF Exporter v1.2.6 by Centaur"
  },
  "scene": 0,
  "scenes": [
    {
      "nodes": [
        0
      ]
    }
  ],
  "samplers": [
    {
    }
  ],
  "nodes": [
    {
      "name": "root",
      "children": [
        1,
        2,
        3,
        4,
        5,
        6,
        7,
        8
      ]
    },
    {
      "name": "Structure",
      "mesh": 0
    },
    {
      "name": "Shelf",
      "mesh": 1
    },
    {
      "name": "Shelf",
      "mesh": 2
    },
    {
      "name": "Shelf",
      "mesh": 3
    },
    {
      "name": "Shelf",
      "mesh": 4
    },
    {
      "name": "UnderShelf",
      "mesh": 5
    },
    {
      "name": "UnderShelf",
      "mesh": 6
    },
    {
      "name": "UnderShelf",
      "mesh": 7
    }
  ],
  "materials": [
    {
      "pbrMetallicRoughness": {
        "baseColorTexture": {
          "index": 0
        },
        "metallicFactor": 0.1,
        "roughnessFactor": 0.9
      },
      "name": "Aluminium1"
    },
    {
      "pbrMetallicRoughness": {
        "baseColorFactor": [
          0.2176,
          0.2176,
          0.2176,
          1.0
        ],
        "metallicFactor": 0.1,
        "roughnessFactor": 0.9
      },
      "name": "default material",
      "doubleSided": true
    },
    {
      "pbrMetallicRoughness": {
        "baseColorTexture": {
          "index": 1
        },
        "metallicFactor": 0.1,
        "roughnessFactor": 0.9
      },
      "name": "Aluminium2"
    }
  ],
  "images": [
    {
      "bufferView": 0,
      "mimeType": "image/jpeg"
    },
    {
      "bufferView": 1,
      "mimeType": "image/jpeg"
    }
  ],
  "textures": [
    {
      "source": 0,
      "sampler": 0
    },
    {
      "source": 1,
      "sampler": 0
    }
  ],
  "meshes": [
    {
      "primitives": [
        {
          "attributes": {
            "POSITION": 2,
            "NORMAL": 3,
            "TEXCOORD_0": 4
          },
          "indices": 5,
          "mode": 4,
          "material": 0
        }
      ]
    },
    {
      "primitives": [
        {
          "attributes": {
            "POSITION": 2,
            "NORMAL": 3,
            "TEXCOORD_0": 4
          },
          "indices": 6,
          "mode": 4,
          "material": 0
        },
        {
          "attributes": {
            "POSITION": 0,
            "NORMAL": 1
          },
          "indices": 7,
          "mode": 4,
          "material": 1
        },
        {
          "attributes": {
            "POSITION": 2,
            "NORMAL": 3,
            "TEXCOORD_0": 4
          },
          "indices": 8,
          "mode": 4,
          "material": 2
        }
      ]
    },
    {
      "primitives": [
        {
          "attributes": {
            "POSITION": 2,
            "NORMAL": 3,
            "TEXCOORD_0": 4
          },
          "indices": 9,
          "mode": 4,
          "material": 0
        },
        {
          "attributes": {
            "POSITION": 0,
            "NORMAL": 1
          },
          "indices": 10,
          "mode": 4,
          "material": 1
        },
        {
          "attributes": {
            "POSITION": 2,
            "NORMAL": 3,
            "TEXCOORD_0": 4
          },
          "indices": 11,
          "mode": 4,
          "material": 2
        }
      ]
    },
    {
      "primitives": [
        {
          "attributes": {
            "POSITION": 2,
            "NORMAL": 3,
            "TEXCOORD_0": 4
          },
          "indices": 12,
          "mode": 4,
          "material": 0
        },
        {
          "attributes": {
            "POSITION": 0,
            "NORMAL": 1
          },
          "indices": 13,
          "mode": 4,
          "material": 1
        },
        {
          "attributes": {
            "POSITION": 2,
            "NORMAL": 3,
            "TEXCOORD_0": 4
          },
          "indices": 14,
          "mode": 4,
          "material": 2
        }
      ]
    },
    {
      "primitives": [
        {
          "attributes": {
            "POSITION": 2,
            "NORMAL": 3,
            "TEXCOORD_0": 4
          },
          "indices": 15,
          "mode": 4,
          "material": 0
        },
        {
          "attributes": {
            "POSITION": 0,
            "NORMAL": 1
          },
          "indices": 16,
          "mode": 4,
          "material": 1
        },
        {
          "attributes": {
            "POSITION": 2,
            "NORMAL": 3,
            "TEXCOORD_0": 4
          },
          "indices": 17,
          "mode": 4,
          "material": 2
        }
      ]
    },
    {
      "primitives": [
        {
          "attributes": {
            "POSITION": 0,
            "NORMAL": 1
          },
          "indices": 18,
          "mode": 4,
          "material": 1
        },
        {
          "attributes": {
            "POSITION": 2,
            "NORMAL": 3,
            "TEXCOORD_0": 4
          },
          "indices": 19,
          "mode": 4,
          "material": 0
        }
      ]
    },
    {
      "primitives": [
        {
          "attributes": {
            "POSITION": 0,
            "NORMAL": 1
          },
          "indices": 20,
          "mode": 4,
          "material": 1
        },
        {
          "attributes": {
            "POSITION": 2,
            "NORMAL": 3,
            "TEXCOORD_0": 4
          },
          "indices": 21,
          "mode": 4,
          "material": 0
        }
      ]
    },
    {
      "primitives": [
        {
          "attributes": {
            "POSITION": 0,
            "NORMAL": 1
          },
          "indices": 22,
          "mode": 4,
          "material": 1
        },
        {
          "attributes": {
            "POSITION": 2,
            "NORMAL": 3,
            "TEXCOORD_0": 4
          },
          "indices": 23,
          "mode": 4,
          "material": 0
        }
      ]
    }
  ],
  "accessors": [
    {
      "bufferView": 2,
      "componentType": 5126,
      "count": 512,
      "type": "VEC3",
      "min": [
        0.01899999999999999,
        0.08500000000000013,
        -0.601
      ],
      "max": [
        0.4420000000000003,
        1.295,
        1.0280909878842024e-16
      ]
    },
    {
      "bufferView": 3,
      "componentType": 5126,
      "count": 512,
      "type": "VEC3",
      "min": [
        -1.0,
        -1.0,
        -1.0
      ],
      "max": [
        1.0,
        1.0,
        1.0
      ]
    },
    {
      "bufferView": 4,
      "componentType": 5126,
      "count": 506,
      "type": "VEC3",
      "min": [
        0.0,
        -3.8208980133397446e-17,
        -0.6240000000000004
      ],
      "max": [
        0.46000000000000013,
        1.32,
        1.126675055215565e-16
      ]
    },
    {
      "bufferView": 5,
      "componentType": 5126,
      "count": 506,
      "type": "VEC3",
      "min": [
        -1.0,
        -1.0,
        -1.0
      ],
      "max": [
        1.0,
        1.0,
        1.0
      ]
    },
    {
      "bufferView": 6,
      "componentType": 5126,
      "count": 506,
      "type": "VEC2",
      "min": [
        -24.566929133858284,
        -50.96850393700788
      ],
      "max": [
        24.566929133858284,
        1.0000000000000087
      ]
    },
    {
      "bufferView": 8,
      "componentType": 5123,
      "count": 297,
      "type": "SCALAR"
    },
    {
      "bufferView": 8,
      "componentType": 5123,
      "count": 96,
      "type": "SCALAR",
      "byteOffset": 594
    },
    {
      "bufferView": 7,
      "componentType": 5123,
      "count": 207,
      "type": "SCALAR"
    },
    {
      "bufferView": 8,
      "componentType": 5123,
      "count": 78,
      "type": "SCALAR",
      "byteOffset": 786
    },
    {
      "bufferView": 8,
      "componentType": 5123,
      "count": 96,
      "type": "SCALAR",
      "byteOffset": 942
    },
    {
      "bufferView": 7,
      "componentType": 5123,
      "count": 207,
      "type": "SCALAR",
      "byteOffset": 414
    },
    {
      "bufferView": 8,
      "componentType": 5123,
      "count": 78,
      "type": "SCALAR",
      "byteOffset": 1134
    },
    {
      "bufferView": 8,
      "componentType": 5123,
      "count": 96,
      "type": "SCALAR",
      "byteOffset": 1290
    },
    {
      "bufferView": 7,
      "componentType": 5123,
      "count": 207,
      "type": "SCALAR",
      "byteOffset": 828
    },
    {
      "bufferView": 8,
      "componentType": 5123,
      "count": 78,
      "type": "SCALAR",
      "byteOffset": 1482
    },
    {
      "bufferView": 8,
      "componentType": 5123,
      "count": 96,
      "type": "SCALAR",
      "byteOffset": 1638
    },
    {
      "bufferView": 7,
      "componentType": 5123,
      "count": 207,
      "type": "SCALAR",
      "byteOffset": 1242
    },
    {
      "bufferView": 8,
      "componentType": 5123,
      "count": 78,
      "type": "SCALAR",
      "byteOffset": 1830
    },
    {
      "bufferView": 7,
      "componentType": 5123,
      "count": 18,
      "type": "SCALAR",
      "byteOffset": 1656
    },
    {
      "bufferView": 8,
      "componentType": 5123,
      "count": 18,
      "type": "SCALAR",
      "byteOffset": 1986
    },
    {
      "bufferView": 7,
      "componentType": 5123,
      "count": 18,
      "type": "SCALAR",
      "byteOffset": 1692
    },
    {
      "bufferView": 8,
      "componentType": 5123,
      "count": 18,
      "type": "SCALAR",
      "byteOffset": 2022
    },
    {
      "bufferView": 7,
      "componentType": 5123,
      "count": 18,
      "type": "SCALAR",
      "byteOffset": 1728
    },
    {
      "bufferView": 8,
      "componentType": 5123,
      "count": 18,
      "type": "SCALAR",
      "byteOffset": 2058
    }
  ],
  "bufferViews": [
    {
      "buffer": 0,
      "byteLength": 149883
    },
    {
      "buffer": 0,
      "byteOffset": 149883,
      "byteLength": 151990
    },
    {
      "buffer": 0,
      "byteOffset": 301884,
      "byteLength": 6144,
      "target": 34962,
      "byteStride": 12
    },
    {
      "buffer": 0,
      "byteOffset": 308028,
      "byteLength": 6144,
      "target": 34962,
      "byteStride": 12
    },
    {
      "buffer": 0,
      "byteOffset": 314172,
      "byteLength": 6072,
      "target": 34962,
      "byteStride": 12
    },
    {
      "buffer": 0,
      "byteOffset": 320244,
      "byteLength": 6072,
      "target": 34962,
      "byteStride": 12
    },
    {
      "buffer": 0,
      "byteOffset": 326320,
      "byteLength": 4048,
      "target": 34962,
      "byteStride": 8
    },
    {
      "buffer": 0,
      "byteOffset": 330368,
      "byteLength": 1764,
      "target": 34963
    },
    {
      "buffer": 0,
      "byteOffset": 332132,
      "byteLength": 2094,
      "target": 34963
    }
  ],
  "buffers": [
    {
      "uri": "data:application/octet-stream;base64,",
      "byteLength": 334226
    }
  ]
}