{
  "asset": {
    "version": "2.0",
    "generator": "Sketchup glTF Exporter v1.2.6 by Centaur"
  },
  "scene": 0,
  "scenes": [
    {
      "nodes": [
        0
      ]
    }
  ],
  "samplers": [
    {
    }
  ],
  "nodes": [
    {
      "name": "root",
      "children": [
        1,
        2,
        3,
        4
      ]
    },
    {
      "name": "TableTop",
      "mesh": 0
    },
    {
      "name": "TableLeg",
      "mesh": 1
    },
    {
      "name": "TableLeg",
      "mesh": 2
    },
    {
      "name": "MidPartition",
      "mesh": 3
    }
  ],
  "materials": [
    {
      "pbrMetallicRoughness": {
        "baseColorTexture": {
          "index": 0
        },
        "metallicFactor": 0.1,
        "roughnessFactor": 0.9
      },
      "name": "Plywood"
    },
    {
      "pbrMetallicRoughness": {
        "baseColorTexture": {
          "index": 1
        },
        "roughnessFactor": 0.1
      },
      "name": "DarksteelMetal"
    },
    {
      "pbrMetallicRoughness": {
        "baseColorTexture": {
          "index": 2
        },
        "metallicFactor": 0.1,
        "roughnessFactor": 0.9
      },
      "name": "Plaster"
    }
  ],
  "images": [
    {
      "bufferView": 0,
      "mimeType": "image/jpeg"
    },
    {
      "bufferView": 1,
      "mimeType": "image/jpeg"
    },
    {
      "bufferView": 2,
      "mimeType": "image/jpeg"
    }
  ],
  "textures": [
    {
      "source": 0,
      "sampler": 0
    },
    {
      "source": 1,
      "sampler": 0
    },
    {
      "source": 2,
      "sampler": 0
    }
  ],
  "meshes": [
    {
      "primitives": [
        {
          "attributes": {
            "POSITION": 0,
            "NORMAL": 1,
            "TEXCOORD_0": 2
          },
          "indices": 3,
          "mode": 4,
          "material": 0
        }
      ]
    },
    {
      "primitives": [
        {
          "attributes": {
            "POSITION": 0,
            "NORMAL": 1,
            "TEXCOORD_0": 2
          },
          "indices": 4,
          "mode": 4,
          "material": 1
        }
      ]
    },
    {
      "primitives": [
        {
          "attributes": {
            "POSITION": 0,
            "NORMAL": 1,
            "TEXCOORD_0": 2
          },
          "indices": 5,
          "mode": 4,
          "material": 1
        }
      ]
    },
    {
      "primitives": [
        {
          "attributes": {
            "POSITION": 0,
            "NORMAL": 1,
            "TEXCOORD_0": 2
          },
          "indices": 6,
          "mode": 4,
          "material": 2
        }
      ]
    }
  ],
  "accessors": [
    {
      "bufferView": 3,
      "componentType": 5126,
      "count": 628,
      "type": "VEC3",
      "min": [
        2.4492935982947075e-17,
        -0.020379074038015275,
        -1.0
      ],
      "max": [
        2.4,
        0.775,
        5.174132726397567e-16
      ]
    },
    {
      "bufferView": 4,
      "componentType": 5126,
      "count": 628,
      "type": "VEC3",
      "min": [
        -1.0,
        -1.0,
        -1.0
      ],
      "max": [
        1.0,
        1.0,
        1.0
      ]
    },
    {
      "bufferView": 5,
      "componentType": 5126,
      "count": 628,
      "type": "VEC2",
      "min": [
        -94.48818897637796,
        -38.37007874015748
      ],
      "max": [
        94.48818897637796,
        1.0
      ]
    },
    {
      "bufferView": 6,
      "componentType": 5123,
      "count": 612,
      "type": "SCALAR"
    },
    {
      "bufferView": 6,
      "componentType": 5123,
      "count": 270,
      "type": "SCALAR",
      "byteOffset": 1224
    },
    {
      "bufferView": 6,
      "componentType": 5123,
      "count": 270,
      "type": "SCALAR",
      "byteOffset": 1764
    },
    {
      "bufferView": 6,
      "componentType": 5123,
      "count": 36,
      "type": "SCALAR",
      "byteOffset": 2304
    }
  ],
  "bufferViews": [
    {
      "buffer": 0,
      "byteLength": 500907
    },
    {
      "buffer": 0,
      "byteOffset": 500907,
      "byteLength": 50894
    },
    {
      "buffer": 0,
      "byteOffset": 551801,
      "byteLength": 1446576
    },
    {
      "buffer": 0,
      "byteOffset": 1998384,
      "byteLength": 7536,
      "target": 34962,
      "byteStride": 12
    },
    {
      "buffer": 0,
      "byteOffset": 2005920,
      "byteLength": 7536,
      "target": 34962,
      "byteStride": 12
    },
    {
      "buffer": 0,
      "byteOffset": 2013456,
      "byteLength": 5024,
      "target": 34962,
      "byteStride": 8
    },
    {
      "buffer": 0,
      "byteOffset": 2018480,
      "byteLength": 2376,
      "target": 34963
    }
  ],
  "buffers": [
    {
      "uri": "data:application/octet-stream;base64,",
      "byteLength": 2020856
    }
  ]
}